<?xml version="1.0" encoding="UTF-8" standalone="no"?>
<!-- Created with Inkscape (http://www.inkscape.org/) -->

<svg
   width="105mm"
   height="148mm"
   viewBox="0 0 105 148"
   version="1.1"
   id="svg1"
   inkscape:version="1.3.2 (091e20ef0f, 2023-11-25, custom)"
   sodipodi:docname="how_to_undo_cartaz.svg"
   xml:space="preserve"
   inkscape:export-filename="how_to_undo_cartaz.png"
   inkscape:export-xdpi="193.5238"
   inkscape:export-ydpi="193.5238"
   xmlns:inkscape="http://www.inkscape.org/namespaces/inkscape"
   xmlns:sodipodi="http://sodipodi.sourceforge.net/DTD/sodipodi-0.dtd"
   xmlns:xlink="http://www.w3.org/1999/xlink"
   xmlns="http://www.w3.org/2000/svg"
   xmlns:svg="http://www.w3.org/2000/svg"><sodipodi:namedview
     id="namedview1"
     pagecolor="#ffffff"
     bordercolor="#000000"
     borderopacity="0.25"
     inkscape:showpageshadow="2"
     inkscape:pageopacity="0.0"
     inkscape:pagecheckerboard="0"
     inkscape:deskcolor="#d1d1d1"
     inkscape:document-units="mm"
     inkscape:zoom="1.0658928"
     inkscape:cx="216.71973"
     inkscape:cy="273.01057"
     inkscape:window-width="1920"
     inkscape:window-height="1020"
     inkscape:window-x="0"
     inkscape:window-y="0"
     inkscape:window-maximized="1"
     inkscape:current-layer="layer1"
     showguides="false"
     showgrid="false"><sodipodi:guide
       position="7.0276714,147.97233"
       orientation="1,0"
       id="guide1"
       inkscape:locked="false" /><sodipodi:guide
       position="3.527671,140.97233"
       orientation="0,-1"
       id="guide2"
       inkscape:locked="false" /><sodipodi:guide
       position="97.972329,140.97233"
       orientation="1,0"
       id="guide4"
       inkscape:locked="false" /><sodipodi:guide
       position="105,7.0000001"
       orientation="0,-1"
       id="guide5"
       inkscape:locked="false" /><sodipodi:guide
       position="7.0276714,47.971803"
       orientation="0,-1"
       id="guide6"
       inkscape:locked="false" /><sodipodi:guide
       position="7.0276714,83.050703"
       orientation="0,-1"
       id="guide7"
       inkscape:locked="false" /><sodipodi:guide
       position="7.0276713,99.403387"
       orientation="0,-1"
       id="guide8"
       inkscape:locked="false" /></sodipodi:namedview><defs
     id="defs1"><rect
       x="27.825807"
       y="176.23011"
       width="346.34078"
       height="90.078952"
       id="rect3" /><rect
       x="40.668488"
       y="24.971879"
       width="316.78611"
       height="126.28636"
       id="rect2" /><rect
       x="27.825808"
       y="176.2301"
       width="355.24684"
       height="108.90413"
       id="rect3-0" /><rect
       x="27.825808"
       y="176.2301"
       width="199.77504"
       height="52.084203"
       id="rect3-0-1" /><rect
       x="27.825808"
       y="176.2301"
       width="312.50523"
       height="28.539289"
       id="rect4" /><rect
       x="27.825808"
       y="176.2301"
       width="311.79175"
       height="87.758316"
       id="rect4-7" /><rect
       x="27.825808"
       y="176.2301"
       width="310.36479"
       height="17.837055"
       id="rect4-7-4" /><clipPath
       clipPathUnits="userSpaceOnUse"
       id="clipPath9"><rect
         style="opacity:0.5;fill:#ffffff;fill-opacity:1;stroke:#000000;stroke-width:0.0553413"
         id="rect9"
         width="104.94466"
         height="147.94466"
         x="0.027670657"
         y="0.027670657"
         inkscape:label="colour" /></clipPath><clipPath
       clipPathUnits="userSpaceOnUse"
       id="clipPath35"><g
         id="g37"
         style="stroke-width:0.999999"><g
           id="g36"
           style="stroke-width:0.999999"><path
             d="M 0.2740937,-0.6347645 H 105.27487 V 147.86351 H 0.2740937 Z"
             id="path35"
             inkscape:connector-curvature="0"
             style="stroke-width:0.999999" /></g></g></clipPath><clipPath
       clipPathUnits="userSpaceOnUse"
       id="clipPath38"><g
         id="g40"
         style="stroke-width:0.999999"><g
           id="g39"
           style="stroke-width:0.999999"><path
             d="M 0.2740937,-0.6347645 H 105.27487 V 147.86351 H 0.2740937 Z"
             id="path38"
             inkscape:connector-curvature="0"
             style="stroke-width:0.999999" /></g></g></clipPath><clipPath
       clipPathUnits="userSpaceOnUse"
       id="clipPath41"><g
         id="g43"
         style="stroke-width:0.999999"><g
           id="g42"
           style="stroke-width:0.999999"><path
             d="M 0.2740937,-0.6347645 H 105.27487 V 147.86351 H 0.2740937 Z"
             id="path41"
             inkscape:connector-curvature="0"
             style="stroke-width:0.999999" /></g></g></clipPath><clipPath
       clipPathUnits="userSpaceOnUse"
       id="clipPath44"><g
         id="g46"
         style="stroke-width:0.999999"><g
           id="g45"
           style="stroke-width:0.999999"><path
             d="M 0.2740937,-0.6347645 H 105.27487 V 147.86351 H 0.2740937 Z"
             id="path44"
             inkscape:connector-curvature="0"
             style="stroke-width:0.999999" /></g></g></clipPath><clipPath
       clipPathUnits="userSpaceOnUse"
       id="clipPath47"><g
         id="g49"
         style="stroke-width:0.999999"><g
           id="g48"
           style="stroke-width:0.999999"><path
             d="M 0.2740937,-0.6347645 H 105.27487 V 147.86351 H 0.2740937 Z"
             id="path47"
             inkscape:connector-curvature="0"
             style="stroke-width:0.999999" /></g></g></clipPath><clipPath
       clipPathUnits="userSpaceOnUse"
       id="clipPath50"><g
         id="g53"
         style="stroke-width:0.999999"><g
           id="g51"
           style="stroke-width:0.999999"><path
             d="M 0.2740937,-0.6347645 H 105.27487 V 147.86351 H 0.2740937 Z"
             id="path51"
             inkscape:connector-curvature="0"
             style="stroke-width:0.999999" /></g></g></clipPath><clipPath
       clipPathUnits="userSpaceOnUse"
       id="clipPath54"><g
         id="g57"
         style="stroke-width:0.999999"><g
           id="g55"
           style="stroke-width:0.999999"><path
             d="M 0.2740937,-0.6347645 H 105.27487 V 147.86351 H 0.2740937 Z"
             id="path55"
             inkscape:connector-curvature="0"
             style="stroke-width:0.999999" /></g></g></clipPath><clipPath
       clipPathUnits="userSpaceOnUse"
       id="clipPath58"><g
         id="g61"
         style="stroke-width:0.999999"><g
           id="g59"
           style="stroke-width:0.999999"><path
             d="M 0.2740937,-0.6347645 H 105.27487 V 147.86351 H 0.2740937 Z"
             id="path59"
             inkscape:connector-curvature="0"
             style="stroke-width:0.999999" /></g></g></clipPath><clipPath
       clipPathUnits="userSpaceOnUse"
       id="clipPath62"><g
         id="g65"
         style="stroke-width:0.999999"><g
           id="g63"
           style="stroke-width:0.999999"><path
             d="M 0.2740937,-0.6347645 H 105.27487 V 147.86351 H 0.2740937 Z"
             id="path63"
             inkscape:connector-curvature="0"
             style="stroke-width:0.999999" /></g></g></clipPath><clipPath
       clipPathUnits="userSpaceOnUse"
       id="clipPath66"><g
         id="g69"
         style="stroke-width:0.999999"><g
           id="g67"
           style="stroke-width:0.999999"><path
             d="M 0.2740937,-0.6347645 H 105.27487 V 147.86351 H 0.2740937 Z"
             id="path67"
             inkscape:connector-curvature="0"
             style="stroke-width:0.999999" /></g></g></clipPath><clipPath
       clipPathUnits="userSpaceOnUse"
       id="clipPath70"><g
         id="g73"
         style="stroke-width:0.999999"><g
           id="g71"
           style="stroke-width:0.999999"><path
             d="M 0.2740937,-0.6347645 H 105.27487 V 147.86351 H 0.2740937 Z"
             id="path71"
             inkscape:connector-curvature="0"
             style="stroke-width:0.999999" /></g></g></clipPath><clipPath
       clipPathUnits="userSpaceOnUse"
       id="clipPath74"><g
         id="g77"
         style="stroke-width:0.999999"><g
           id="g75"
           style="stroke-width:0.999999"><path
             d="M 0.2740937,-0.6347645 H 105.27487 V 147.86351 H 0.2740937 Z"
             id="path75"
             inkscape:connector-curvature="0"
             style="stroke-width:0.999999" /></g></g></clipPath><clipPath
       clipPathUnits="userSpaceOnUse"
       id="clipPath78"><g
         id="g80"
         style="stroke-width:0.999999"><g
           id="g79"
           style="stroke-width:0.999999"><path
             d="M 0.2740937,-0.6347645 H 105.27487 V 147.86351 H 0.2740937 Z"
             id="path79"
             inkscape:connector-curvature="0"
             style="stroke-width:0.999999" /></g></g></clipPath><clipPath
       clipPathUnits="userSpaceOnUse"
       id="clipPath81"><g
         id="g83"
         style="stroke-width:0.999999"><g
           id="g82"
           style="stroke-width:0.999999"><path
             d="M 0.2740937,-0.6347645 H 105.27487 V 147.86351 H 0.2740937 Z"
             id="path81"
             inkscape:connector-curvature="0"
             style="stroke-width:0.999999" /></g></g></clipPath><clipPath
       clipPathUnits="userSpaceOnUse"
       id="clipPath84"><g
         id="g86"
         style="stroke-width:0.999999"><g
           id="g85"
           style="stroke-width:0.999999"><path
             d="M 0.2740937,-0.6347645 H 105.27487 V 147.86351 H 0.2740937 Z"
             id="path84"
             inkscape:connector-curvature="0"
             style="stroke-width:0.999999" /></g></g></clipPath><clipPath
       clipPathUnits="userSpaceOnUse"
       id="clipPath87"><g
         id="g89"
         style="stroke-width:0.999999"><g
           id="g88"
           style="stroke-width:0.999999"><path
             d="M 0.2740937,-0.6347645 H 105.27487 V 147.86351 H 0.2740937 Z"
             id="path87"
             inkscape:connector-curvature="0"
             style="stroke-width:0.999999" /></g></g></clipPath><clipPath
       clipPathUnits="userSpaceOnUse"
       id="clipPath90"><g
         id="g92"
         style="stroke-width:0.999999"><g
           id="g91"
           style="stroke-width:0.999999"><path
             d="M 0.2740937,-0.6347645 H 105.27487 V 147.86351 H 0.2740937 Z"
             id="path91"
             inkscape:connector-curvature="0"
             style="stroke-width:0.999999" /></g></g></clipPath><clipPath
       clipPathUnits="userSpaceOnUse"
       id="clipPath93"><g
         id="g95"
         style="stroke-width:0.999999"><g
           id="g94"
           style="stroke-width:0.999999"><path
             d="M 0.2740937,-0.6347645 H 105.27487 V 147.86351 H 0.2740937 Z"
             id="path93"
             inkscape:connector-curvature="0"
             style="stroke-width:0.999999" /></g></g></clipPath><clipPath
       clipPathUnits="userSpaceOnUse"
       id="clipPath97"><g
         id="g99"
         style="stroke-width:0.999999"><g
           id="g98"
           style="stroke-width:0.999999"><path
             d="M 0.2740937,-0.6347645 H 105.27487 V 147.86351 H 0.2740937 Z"
             id="path97"
             inkscape:connector-curvature="0"
             style="stroke-width:0.999999" /></g></g></clipPath><clipPath
       clipPathUnits="userSpaceOnUse"
       id="clipPath100"><g
         id="g102"
         style="stroke-width:0.999999"><g
           id="g101"
           style="stroke-width:0.999999"><path
             d="M 0.2740937,-0.6347645 H 105.27487 V 147.86351 H 0.2740937 Z"
             id="path100"
             inkscape:connector-curvature="0"
             style="stroke-width:0.999999" /></g></g></clipPath><clipPath
       clipPathUnits="userSpaceOnUse"
       id="clipPath103"><g
         id="g105"
         style="stroke-width:0.999999"><g
           id="g104"
           style="stroke-width:0.999999"><path
             d="M 0.2740937,-0.6347645 H 105.27487 V 147.86351 H 0.2740937 Z"
             id="path103"
             inkscape:connector-curvature="0"
             style="stroke-width:0.999999" /></g></g></clipPath><clipPath
       clipPathUnits="userSpaceOnUse"
       id="clipPath106"><g
         id="g108"
         style="stroke-width:0.999999"><g
           id="g107"
           style="stroke-width:0.999999"><path
             d="M 0.2740937,-0.6347645 H 105.27487 V 147.86351 H 0.2740937 Z"
             id="path107"
             inkscape:connector-curvature="0"
             style="stroke-width:0.999999" /></g></g></clipPath><clipPath
       clipPathUnits="userSpaceOnUse"
       id="clipPath109"><g
         id="g111"
         style="stroke-width:0.999999"><g
           id="g110"
           style="stroke-width:0.999999"><path
             d="M 0.2740937,-0.6347645 H 105.27487 V 147.86351 H 0.2740937 Z"
             id="path109"
             inkscape:connector-curvature="0"
             style="stroke-width:0.999999" /></g></g></clipPath><clipPath
       clipPathUnits="userSpaceOnUse"
       id="clipPath112"><g
         id="g114"
         style="stroke-width:0.999999"><g
           id="g113"
           style="stroke-width:0.999999"><path
             d="M 0.2740937,-0.6347645 H 105.27487 V 147.86351 H 0.2740937 Z"
             id="path112"
             inkscape:connector-curvature="0"
             style="stroke-width:0.999999" /></g></g></clipPath><clipPath
       clipPathUnits="userSpaceOnUse"
       id="clipPath115"><g
         id="g117"
         style="stroke-width:0.999999"><g
           id="g116"
           style="stroke-width:0.999999"><path
             d="M 0.2740937,-0.6347645 H 105.27487 V 147.86351 H 0.2740937 Z"
             id="path115"
             inkscape:connector-curvature="0"
             style="stroke-width:0.999999" /></g></g></clipPath><clipPath
       clipPathUnits="userSpaceOnUse"
       id="clipPath5"><rect
         style="opacity:1;fill:#2c496b;fill-opacity:0.65437;stroke:#000000;stroke-width:0.0553413"
         id="rect6"
         width="104.94466"
         height="147.94466"
         x="0.027670657"
         y="0.027670657"
         inkscape:label="Colour" /></clipPath><clipPath
       clipPathUnits="userSpaceOnUse"
       id="clipPath7"><rect
         style="opacity:1;fill:#2c496b;fill-opacity:0.65437;stroke:#000000;stroke-width:0.0553413"
         id="rect8"
         width="104.94466"
         height="147.94466"
         x="0.027670657"
         y="0.027670657"
         inkscape:label="Colour" /></clipPath><clipPath
       clipPathUnits="userSpaceOnUse"
       id="clipPath10"><rect
         style="opacity:1;fill:#8d651a;fill-opacity:0.65437;stroke:#000000;stroke-width:0.0553413"
         id="rect11"
         width="104.94466"
         height="147.94466"
         x="0.027670657"
         y="0.027670657"
         inkscape:label="Colour" /></clipPath><rect
       x="27.825808"
       y="176.2301"
       width="310.36478"
       height="17.837055"
       id="rect4-7-4-7" /><rect
       x="27.825808"
       y="176.2301"
       width="312.50522"
       height="28.539289"
       id="rect4-5" /><clipPath
       clipPathUnits="userSpaceOnUse"
       id="clipPath13"><rect
         style="opacity:1;fill:none;fill-opacity:0.65437;stroke:#000000;stroke-width:0.0553413"
         id="rect14"
         width="104.94466"
         height="147.94466"
         x="0.027670657"
         y="0.027670657"
         inkscape:label="Colour" /></clipPath></defs><g
     inkscape:groupmode="layer"
     id="layer2"
     inkscape:label="BACKGROUND LAYER"
     style="display:inline"
     inkscape:highlight-color="#0000ff"><image
       width="125.16535"
       height="188.29942"
       preserveAspectRatio="none"
       xlink:href="bikzad-generationis_BibilOdyssey_CC-BY.jpg"
       id="image1-7"
       x="-5.5736899"
       y="-12.713936"
       style="display:inline;fill:#ffffff;fill-opacity:1;stroke:#ffffff;stroke-width:1.9194;stroke-opacity:1"
       clip-path="url(#clipPath13)" /><rect
       style="display:inline;opacity:1;fill:#1a8d56;fill-opacity:0.616739;stroke:none;stroke-width:0.0553413"
       id="rect1"
       width="104.94466"
       height="147.94466"
       x="0.027670657"
       y="0.027670657"
       inkscape:label="Colour" /></g><g
     inkscape:label="TEXT LAYER"
     inkscape:groupmode="layer"
     id="layer1"
     style="display:inline;fill:#ffffff;fill-opacity:1;stroke:#ffffff;stroke-opacity:1"
     inkscape:highlight-color="#e33e3e"><text
       xml:space="preserve"
       id="text4-2-5"
       style="font-style:normal;font-variant:normal;font-weight:normal;font-stretch:normal;font-size:10.6667px;font-family:Abel;-inkscape-font-specification:Abel;white-space:pre;shape-inside:url(#rect4-7-4-7);display:inline;opacity:0.5;fill:#ffffff;fill-opacity:1;stroke:#ffffff;stroke-width:0.113386;stroke-opacity:1"
       inkscape:label="Image Reference"
       transform="matrix(0.26458333,0,0,0.26458333,-0.53188833,95.70887)"><tspan
         x="27.826172"
         y="185.76204"
         id="tspan1">image: peacay - BibliOdyssey CC-BY</tspan></text><path
       id="path50"
       clip-path="url(#clipPath38)"
       style="fill:#ffffff;fill-opacity:1;fill-rule:nonzero;stroke:none;stroke-width:0.352778;stroke-opacity:1"
       d="m 89.123242,100.0001 -0.901237,0.0455 c -0.102305,0.005 -0.192466,0.0673 -0.234094,0.16072 l -0.157096,0.35656 c -0.0035,0.007 -0.006,0.0149 -0.0088,0.0227 l -0.126091,0.37466 c -0.0039,0.0106 -0.0063,0.0209 -0.0088,0.0315 l -0.06253,0.30127 c -0.0032,0.012 -0.0044,0.0237 -0.0047,0.0357 l -0.0083,0.11524 -0.996322,0.26561 -0.03462,-0.0527 c -0.006,-0.009 -0.01258,-0.0181 -0.01964,-0.0269 l -0.168465,-0.19895 c -0.0056,-0.007 -0.01157,-0.0131 -0.01757,-0.0191 l -0.189136,-0.18449 c -0.0053,-0.005 -0.01122,-0.0106 -0.01757,-0.0155 l -0.254248,-0.20774 -0.249081,-0.17725 c -0.08255,-0.0586 -0.190669,-0.0669 -0.279569,-0.0207 l -0.804602,0.41031 c -0.0081,0.005 -0.01636,0.009 -0.02377,0.0139 l -0.75861,0.49145 c -0.08572,0.0561 -0.132917,0.15575 -0.120923,0.25735 l 0.04392,0.38809 c 0.0011,0.007 0.0022,0.0148 0.0036,0.0222 l 0.07596,0.38654 c 0.0021,0.0109 0.0052,0.0222 0.0088,0.0331 l 0.09663,0.29145 c 0.0035,0.0113 0.0085,0.022 0.01344,0.0326 l 0.05013,0.10387 -0.729671,0.72967 -0.05994,-0.0294 c -0.0088,-0.005 -0.01803,-0.008 -0.02791,-0.0119 l -0.244946,-0.0894 c -0.0088,-0.003 -0.01821,-0.006 -0.02739,-0.008 l -0.255798,-0.063 c -0.0067,-0.002 -0.01413,-0.003 -0.02119,-0.004 l -0.321944,-0.0527 -0.304891,-0.0315 c -0.09948,-0.01 -0.198699,0.0371 -0.253732,0.12144 l -0.489892,0.75861 c -0.0053,0.007 -0.0097,0.0155 -0.01395,0.0233 l -0.411861,0.80409 c -0.04657,0.09 -0.03776,0.19944 0.02222,0.28163 l 0.22996,0.31575 c 0.0053,0.007 0.0099,0.0131 0.0155,0.0191 l 0.261999,0.29765 c 0.0074,0.008 0.01429,0.0151 0.0217,0.0222 l 0.229961,0.2067 c 0.0092,0.009 0.02058,0.0167 0.03152,0.0238 l 0.09354,0.0636 -0.267168,0.99529 -0.06666,0.005 c -0.01023,3.5e-4 -0.02078,5.8e-4 -0.03101,0.003 l -0.256832,0.046 c -0.0088,0.001 -0.01857,0.004 -0.02739,0.006 l -0.251665,0.0718 c -0.0071,0.002 -0.01413,0.005 -0.02119,0.007 l -0.305408,0.11627 -0.280603,0.12609 c -0.09278,0.0416 -0.154741,0.13094 -0.15968,0.23254 l -0.04496,0.90124 c -7.06e-4,0.01 -7.06e-4,0.0185 0,0.0274 l 0.04496,0.90175 c 0.0049,0.1023 0.06755,0.19266 0.161747,0.23358 l 0.358118,0.1571 c 0.0074,0.004 0.01498,0.007 0.02274,0.009 l 0.372587,0.12557 c 0.0099,0.004 0.02026,0.007 0.03049,0.009 l 0.302824,0.0636 c 0.01305,0.003 0.02554,0.005 0.03824,0.005 l 0.113172,0.007 0.26665,0.99374 -0.05374,0.0351 c -0.0088,0.006 -0.01875,0.0132 -0.02687,0.0202 l -0.199471,0.16898 c -0.0074,0.005 -0.01397,0.0118 -0.02067,0.0181 l -0.184485,0.1912 c -0.0049,0.005 -0.0095,0.0109 -0.01447,0.0165 l -0.206189,0.25321 -0.178284,0.24805 c -0.05891,0.0822 -0.06775,0.19045 -0.02119,0.28112 l 0.411344,0.80357 c 0.0042,0.008 0.009,0.0153 0.01395,0.0227 l 0.489893,0.75809 c 0.05539,0.0854 0.153492,0.13219 0.255798,0.12196 l 0.38809,-0.0419 c 0.0085,-0.001 0.01704,-0.002 0.02481,-0.004 l 0.387056,-0.0785 c 0.0099,-0.002 0.01959,-0.005 0.02946,-0.008 l 0.293005,-0.0946 c 0.0127,-0.004 0.02469,-0.009 0.03669,-0.0145 l 0.10232,-0.0507 0.324528,0.3266 -0.712618,4.93872 c -0.01094,0.078 0.01205,0.15673 0.06356,0.216 0.05115,0.0593 0.126321,0.0935 0.204638,0.0935 h 6.017204 6.019271 c 0.07867,0 0.15278,-0.0339 0.204639,-0.0935 0.05115,-0.0593 0.07397,-0.13804 0.06304,-0.216 l -0.712618,-4.94027 0.323494,-0.32401 0.05788,0.0294 c 0.01023,0.005 0.02009,0.009 0.02997,0.0129 l 0.246497,0.0889 c 0.0088,0.003 0.0177,0.006 0.02687,0.008 l 0.253214,0.0631 c 0.0078,0.002 0.01498,0.004 0.02274,0.005 l 0.321944,0.0527 0.305408,0.031 c 0.101599,0.008 0.199215,-0.0376 0.254248,-0.12299 l 0.489892,-0.75757 c 0.0049,-0.007 0.01007,-0.0152 0.01395,-0.0233 l 0.411861,-0.80357 c 0.04621,-0.091 0.03759,-0.20048 -0.02274,-0.28267 l -0.230477,-0.31471 c -0.0046,-0.007 -0.0099,-0.0132 -0.01447,-0.0181 l -0.261483,-0.29869 c -0.0067,-0.008 -0.01446,-0.016 -0.02222,-0.0227 l -0.228926,-0.20671 c -0.0099,-0.009 -0.02058,-0.0167 -0.03152,-0.0238 l -0.09405,-0.063 0.265617,-0.99374 0.0646,-0.004 c 0.01164,0 0.02282,-5.9e-4 0.03411,-0.003 l 0.256315,-0.047 c 0.0088,-0.002 0.01756,-0.004 0.02532,-0.006 l 0.253731,-0.0713 c 0.0071,-0.002 0.01413,-0.004 0.02119,-0.006 l 0.306441,-0.11575 0.279053,-0.12713 c 0.09208,-0.0413 0.153355,-0.13078 0.158647,-0.23203 l 0.04703,-0.90175 c 7.05e-4,-0.009 7.05e-4,-0.0183 0,-0.0279 l -0.04754,-0.90176 c -0.0053,-0.10195 -0.06758,-0.19143 -0.160714,-0.23306 l -0.35605,-0.15761 c -0.0081,-0.004 -0.0155,-0.006 -0.02325,-0.009 l -0.375687,-0.12609 c -0.01023,-0.004 -0.02043,-0.006 -0.03101,-0.008 l -0.300757,-0.0625 c -0.01199,-0.002 -0.02383,-0.004 -0.03617,-0.005 l -0.114721,-0.008 -0.266134,-0.99529 0.05374,-0.0351 c 0.0099,-0.006 0.01873,-0.0127 0.0279,-0.0202 l 0.198954,-0.16898 c 0.0067,-0.006 0.01329,-0.0117 0.01964,-0.0181 l 0.182418,-0.18862 c 0.0056,-0.006 0.01092,-0.011 0.0155,-0.017 l 0.206706,-0.25373 0.179317,-0.25012 c 0.05891,-0.0822 0.06705,-0.19099 0.02119,-0.2806 l -0.411344,-0.80409 c -0.0042,-0.007 -0.0094,-0.0159 -0.01395,-0.0233 l -0.489892,-0.75809 c -0.05574,-0.085 -0.15314,-0.13273 -0.255799,-0.12144 l -0.387573,0.0418 c -0.0088,10e-4 -0.01633,0.002 -0.02481,0.004 l -0.386539,0.0775 c -0.01094,0.002 -0.02199,0.005 -0.03152,0.009 l -0.293522,0.0966 c -0.01164,0.004 -0.02214,0.008 -0.03307,0.0134 l -0.103353,0.0501 -0.729671,-0.73122 0.02945,-0.0584 c 0.0042,-0.01 0.0084,-0.0185 0.01189,-0.0284 l 0.0894,-0.24598 c 0.0028,-0.009 0.0051,-0.017 0.0072,-0.0258 l 0.06459,-0.25425 c 0.0021,-0.007 0.0036,-0.0143 0.0047,-0.0217 l 0.05374,-0.32401 0.02997,-0.30438 c 0.0092,-0.10054 -0.03764,-0.19802 -0.121956,-0.2527 l -0.757577,-0.49196 c -0.0078,-0.005 -0.01583,-0.01 -0.02429,-0.0139 l -0.805118,-0.40979 c -0.09102,-0.0462 -0.199957,-0.0381 -0.282154,0.0222 l -0.314709,0.23099 c -0.0067,0.005 -0.01312,0.0103 -0.01912,0.0155 l -0.296622,0.26045 c -0.0078,0.007 -0.01551,0.0139 -0.02222,0.0217 l -0.206189,0.22944 c -0.0088,0.01 -0.0162,0.0193 -0.02325,0.0295 l -0.06305,0.0946 -0.995805,-0.26613 -0.0036,-0.0646 c -7.06e-4,-0.0113 -0.0017,-0.0232 -0.0041,-0.0341 l -0.04703,-0.25683 c -0.0014,-0.009 -0.0032,-0.0168 -0.0057,-0.0253 l -0.07183,-0.25219 c -0.0021,-0.008 -0.0039,-0.0148 -0.0067,-0.0222 l -0.116272,-0.30592 -0.126091,-0.27957 c -0.04163,-0.0924 -0.131813,-0.15371 -0.23306,-0.15865 l -0.901754,-0.0455 c -0.0088,-7.03e-4 -0.01735,-7.03e-4 -0.02687,0 z m 0.01344,0.54105 0.724504,0.0362 0.156579,0.39223 0.0646,0.22944 0.04134,0.22738 0.01292,0.24339 c 0.0063,0.11712 0.08707,0.21668 0.201021,0.24702 l 1.370976,0.36638 c 0.111478,0.0289 0.22948,-0.015 0.294039,-0.11059 l 0.160197,-0.23822 0.182935,-0.20309 0.275952,-0.24236 0.171049,-0.12506 0.644405,0.32763 0.607198,0.39532 -0.06098,0.41651 -0.05788,0.23048 -0.07958,0.21911 -0.109037,0.21911 c -0.05115,0.10372 -0.03068,0.22889 0.05116,0.31109 l 1.003556,1.00407 c 0.08114,0.0822 0.205662,0.10266 0.309025,0.0522 l 0.259416,-0.12558 0.260966,-0.0873 0.359151,-0.0718 0.209806,-0.0227 0.392741,0.60668 0.329696,0.64492 -0.262,0.3328 -0.165881,0.17157 -0.1757,0.14831 -0.204122,0.13177 c -0.09772,0.0638 -0.144026,0.18406 -0.113688,0.29766 l 0.365352,1.37097 c 0.02999,0.11147 0.127357,0.19223 0.242363,0.19999 l 0.289388,0.0207 0.267167,0.0553 0.347782,0.11679 0.19327,0.0858 0.03772,0.7214 -0.03772,0.72399 -0.392224,0.15606 -0.22996,0.0656 -0.226859,0.0408 -0.243913,0.014 c -0.11677,0.006 -0.216675,0.0868 -0.247014,0.19998 l -0.366385,1.37046 c -0.03034,0.11219 0.0146,0.23106 0.111621,0.29456 l 0.239778,0.15968 0.202055,0.1819 0.242879,0.2775 0.124541,0.17105 -0.329179,0.64234 -0.392741,0.60823 -0.419096,-0.0605 -0.22996,-0.0574 -0.218592,-0.0796 -0.218074,-0.10956 c -0.103364,-0.0526 -0.229741,-0.0321 -0.312642,0.0501 l -0.175184,0.1757 -0.467155,-3.23391 c -0.01905,-0.13335 -0.133112,-0.23151 -0.267167,-0.23151 h -1.068152 l -3.469555,-4.1181 c -0.102658,-0.12171 -0.311106,-0.12171 -0.413412,0 l -3.469039,4.1181 h -1.065568 c -0.134407,0 -0.248117,0.0978 -0.267167,0.23151 l -0.468188,3.23391 -0.17415,-0.1757 c -0.08255,-0.0818 -0.207564,-0.103 -0.310575,-0.0522 l -0.258899,0.12815 -0.260966,0.0837 -0.359151,0.0729 -0.210323,0.0227 -0.392224,-0.60668 -0.330213,-0.64492 0.260449,-0.33228 0.167432,-0.1726 0.1757,-0.14831 0.204639,-0.13281 c 0.09807,-0.0631 0.143863,-0.18338 0.113171,-0.29662 l -0.367936,-1.37046 c -0.02999,-0.11218 -0.128037,-0.19187 -0.243396,-0.19999 l -0.286288,-0.0191 -0.2682,-0.0568 -0.346749,-0.11731 -0.19482,-0.0853 -0.03617,-0.7214 0.03617,-0.72347 0.394808,-0.1571 0.226342,-0.0646 0.227893,-0.0403 0.245463,-0.0145 c 0.116063,-0.007 0.214961,-0.0874 0.244947,-0.19999 l 0.367936,-1.37097 c 0.03069,-0.11254 -0.01444,-0.23138 -0.111104,-0.29559 l -0.239779,-0.15865 -0.202055,-0.18242 -0.243396,-0.27698 -0.125057,-0.17002 0.330213,-0.64337 0.393257,-0.60823 0.418063,0.061 0.230993,0.0579 0.217041,0.0791 0.220142,0.10956 c 0.104775,0.0522 0.230282,0.0316 0.312125,-0.0506 l 1.002523,-1.00407 c 0.08149,-0.0815 0.102641,-0.20566 0.05219,-0.30903 l -0.12609,-0.25993 -0.0863,-0.25941 -0.07028,-0.35864 -0.02429,-0.21136 0.606165,-0.39325 0.645955,-0.32918 0.331763,0.26045 0.171049,0.16743 0.149345,0.17725 0.132292,0.20205 c 0.06421,0.0981 0.183217,0.14403 0.296106,0.11369 l 1.372009,-0.36638 c 0.110773,-0.03 0.191874,-0.12772 0.199988,-0.24237 l 0.02015,-0.28835 0.05529,-0.26768 0.117306,-0.34779 0.08527,-0.19327 z m 0,6.43062 2.968811,3.52433 H 89.136678 86.16735 Z m -4.507218,4.06486 h 0.957047 3.279903 v 8.30234 h -5.435327 z m 4.777486,0 h 3.279903 0.959631 l 1.197343,8.30234 H 89.40695 Z m 0.05323,10.74405 v 3.5016 h 2.549198 v -0.65991 h -1.88464 v -2.84169 z m 3.194637,0 v 3.5016 h 2.549198 v -0.65991 h -1.885156 v -2.84169 z m -9.583395,5.2e-4 v 3.50108 h 0.654741 v -1.85519 l 0.444934,0.84284 h 0.330212 c 0.0762,-0.13476 0.154224,-0.27386 0.232544,-0.41392 0.07796,-0.14005 0.155477,-0.28174 0.232027,-0.42427 v 1.85002 5.2e-4 h 0.654224 v -3.50108 h -0.624251 c -0.106186,0.21767 -0.215749,0.44342 -0.329696,0.67696 -0.1143,0.23248 -0.225502,0.46225 -0.334863,0.68626 l -0.63562,-1.36322 z m 3.19412,0.002 v 0.66042 h 0.947229 v 2.17713 h -0.947229 v 0.65939 h 2.549716 v -0.65939 h -0.947746 v -2.18281 h 0.947746 v -0.65474 z m -3.19412,6.48436 v 2.06447 h 0.38654 v -1.09399 l 0.262516,0.49713 h 0.194304 c 0.04516,-0.0794 0.09073,-0.16113 0.136942,-0.24443 0.04621,-0.0825 0.0923,-0.16593 0.137459,-0.25063 v 1.09192 h 0.38654 v -2.06447 H 84.20727 c -0.06244,0.12841 -0.12779,0.26136 -0.19482,0.39894 -0.06738,0.13794 -0.133361,0.27284 -0.197921,0.40514 l -0.374137,-0.80408 z m 2.717147,0 -0.591178,0.59376 v 1.47123 h 0.386539 v -0.55811 h 0.731222 v 0.55811 h 0.386023 v -1.47433 l -0.590662,-0.59066 z m 3.661792,0 v 2.06447 h 1.5012 v -0.38912 h -1.11466 v -0.45011 h 0.836641 v -0.3886 h -0.836641 v -0.44804 h 1.11466 v -0.3886 z m 2.124418,0 v 2.06447 h 0.38654 v -0.83923 h 0.06149 c 0.113594,0.11324 0.225149,0.22411 0.334863,0.33383 0.109361,0.109 0.220753,0.21928 0.334347,0.3297 v 0.1757 h 0.387056 v -0.35657 c -0.07867,-0.078 -0.157141,-0.15764 -0.236161,-0.23874 -0.07902,-0.0808 -0.159479,-0.16212 -0.241329,-0.24392 H 92.7685 l 0.310058,-0.31264 v -0.60255 L 92.7685,128.26756 Z m -4.24987,0.002 v 2.06241 h 0.386023 v -0.76016 l 0.760677,0.76016 v 5.2e-4 h 0.353467 v -0.38913 H 88.65557 c -0.04127,-0.043 -0.08993,-0.0921 -0.147794,-0.14934 -0.0575,-0.0564 -0.11608,-0.11415 -0.1757,-0.17415 -0.05891,-0.0593 -0.117183,-0.11775 -0.173633,-0.17415 -0.0568,-0.0565 -0.105841,-0.10513 -0.146761,-0.14573 0.113594,-0.11289 0.221189,-0.22069 0.323495,-0.32194 0.102305,-0.10125 0.209269,-0.20789 0.320393,-0.31936 h 0.169499 v -0.38913 h -0.353983 c -0.128411,0.127 -0.255809,0.25301 -0.380339,0.37931 -0.124884,0.12559 -0.251058,0.25278 -0.379822,0.38189 v -0.7612 z m 6.688998,0 -0.313159,0.31265 v 0.60099 l 0.313676,0.30954 h 0.692464 c 0.0194,0.0219 0.03852,0.0403 0.05581,0.0558 0.01764,0.0159 0.0357,0.033 0.05581,0.0527 v 0.2341 c -0.02011,0.0208 -0.03817,0.0389 -0.05581,0.0537 -0.01764,0.0148 -0.03657,0.0325 -0.05633,0.0538 h -0.510563 c -0.02187,-0.0212 -0.04064,-0.0403 -0.05581,-0.0568 -0.01552,-0.0166 -0.03383,-0.0339 -0.05323,-0.0537 v -0.1695 h -0.386023 v 0.35657 l 0.310058,0.31264 h 0.879533 l 0.31471,-0.31368 v -0.60409 l -0.313676,-0.31058 h -0.690398 c -0.01941,-0.0215 -0.038,-0.0401 -0.05529,-0.0553 -0.01799,-0.0155 -0.03676,-0.0328 -0.05581,-0.0522 v -0.23254 l 0.105937,-0.10439 h 0.516764 l 0.105937,0.10491 v 0.1726 h 0.386023 v -0.35657 l -0.313159,-0.31058 z m -2.053105,0.38603 h 0.622701 l 0.108521,0.10852 v 0.22789 c -0.02187,0.0202 -0.03941,0.0387 -0.05529,0.0563 -0.01553,0.0169 -0.03347,0.0359 -0.05323,0.0553 h -0.622701 z m -6.043559,0.0594 h 0.04082 c 0.06315,0.0564 0.122543,0.11104 0.178283,0.16434 0.05609,0.0536 0.115651,0.11038 0.178801,0.16898 v 0.33589 h -0.731222 v -0.34209 z m 3.531568,3.06235 v 2.06499 h 0.387056 v -1.46813 c 0.125237,0.10513 0.249328,0.20753 0.371037,0.30593 0.121708,0.0977 0.241487,0.19752 0.359668,0.29662 v 0.86558 h 0.386023 v -2.06499 h -0.386023 v 0.63459 l -0.762744,-0.63459 z m -2.125452,0.003 v 0.38912 h 0.558622 v 1.28416 h -0.558622 v 0.38913 h 1.503784 v -0.38861 h -0.558622 v -1.28778 h 0.558622 v -0.38602 z m -4.25142,3.5078 v 2.06447 h 1.503784 v -0.38912 h -1.112077 v -1.67535 z m 8.50284,0 v 2.06447 l 1.503784,0.002 v -0.38964 l -1.112077,-0.001 v -1.67535 z m 2.127002,0 v 2.06447 h 1.500684 v -0.38912 h -1.113627 v -0.45011 h 0.836124 v -0.3886 h -0.836124 v -0.44752 h 1.113627 v -0.38912 z m -7.000606,0.002 -1.503784,0.001 v 0.38912 h 0.558622 v 1.28365 h -0.558622 v 0.38912 l 1.503784,5.2e-4 v -0.38964 l -0.558622,0.001 v -1.28623 l 0.558622,-0.002 z m 0.623734,5.1e-4 v 0.38706 h 0.555522 v 1.67535 h 0.386023 v -1.67277 h 0.559139 v -0.38964 z m 2.125452,0 v 0.38706 h 0.556038 v 1.67535 h 0.386023 v -1.67277 h 0.559139 v -0.38964 z m -6.378422,3.5078 v 2.06551 h 1.503784 v -0.38913 h -1.112077 v -1.67638 z m 6.376872,0 v 2.06551 h 1.190625 l 0.313159,-0.31575 v -0.59944 l -0.114205,-0.11472 0.114205,-0.11989 v -0.60514 l -0.313159,-0.31057 z m 4.251937,0 v 2.06551 h 0.386023 v -1.46865 c 0.12594,0.10548 0.24968,0.20753 0.371036,0.30593 0.122767,0.0984 0.242357,0.19712 0.360185,0.29662 v 0.8661 h 0.386023 v -2.06551 h -0.38654 v 0.63459 l -0.762227,-0.63459 z m -6.999573,0.002 -1.503784,0.002 v 0.38912 h 0.558622 v 1.28416 h -0.558622 v 0.38913 l 1.503784,-0.001 v -0.38912 l -0.558622,0.001 V 139.189 l 0.558622,-0.002 z m 0.93586,0.002 -0.313159,0.31212 v 0.601 l 0.313676,0.30902 h 0.691947 c 0.0194,0.0215 0.03834,0.0399 0.05633,0.0558 0.01729,0.0155 0.03553,0.0329 0.05529,0.0527 v 0.2341 c -0.01976,0.0211 -0.038,0.0398 -0.05529,0.0543 -0.01799,0.0148 -0.03693,0.0325 -0.05633,0.0537 h -0.511596 c -0.02152,-0.0212 -0.03977,-0.0405 -0.05529,-0.0574 -0.01588,-0.0162 -0.03366,-0.0343 -0.05271,-0.0537 v -0.1695 h -0.38654 v 0.35657 l 0.310059,0.31316 h 0.880049 l 0.314193,-0.31368 v -0.6041 l -0.313159,-0.31109 h -0.690397 c -0.01941,-0.0215 -0.038,-0.0398 -0.05529,-0.0553 -0.01764,-0.0156 -0.03605,-0.0331 -0.05581,-0.0522 v -0.23202 l 0.10542,-0.10491 h 0.516765 l 0.105936,0.10491 v 0.1726 h 0.386023 v -0.35605 l -0.313159,-0.31006 z m 4.250387,0 -0.312643,0.30954 v 1.44022 l 0.312643,0.31213 h 0.877982 l 0.313159,-0.31213 v -1.43712 l -0.310058,-0.31264 z m -2.052588,0.3855 h 0.6196 c 0.0194,0.0218 0.03834,0.0398 0.05633,0.0543 0.01728,0.0148 0.03605,0.0326 0.05581,0.0538 v 0.23512 l -0.10697,0.10491 h -0.624768 z m 2.232422,0.003 h 0.519348 l 0.10542,0.10491 v 1.07435 l -0.10542,0.10542 H 92.07294 c -0.01975,-0.0215 -0.03834,-0.0398 -0.05633,-0.0553 -0.01729,-0.0155 -0.03641,-0.0335 -0.05581,-0.0532 v -1.07384 z m -2.232422,0.83354 h 0.6196 c 0.0194,0.0215 0.03834,0.0399 0.05633,0.0558 0.01728,0.0156 0.03605,0.0329 0.05581,0.0527 v 0.2341 c -0.01975,0.0215 -0.03852,0.0395 -0.05581,0.0543 -0.01799,0.0145 -0.03693,0.0322 -0.05633,0.0537 h -0.6196 z"
       inkscape:label="MILL Logo"
       transform="translate(-0.3032226,0.13513996)" /><text
       xml:space="preserve"
       id="text4-2"
       style="font-style:normal;font-variant:normal;font-weight:normal;font-stretch:normal;font-size:20px;font-family:Abel;-inkscape-font-specification:Abel;white-space:pre;shape-inside:url(#rect4-7);display:inline;opacity:1;fill:#ffffff;fill-opacity:1;stroke:#ffffff;stroke-width:0.113386;stroke-opacity:1"
       inkscape:label="Ticket URL"
       transform="matrix(0.26458333,0,0,0.26458333,-0.53154322,81.357911)"><tspan
         x="27.826172"
         y="194.10212"
         id="tspan2">+ info and register:</tspan></text><text
       xml:space="preserve"
       id="text4"
       style="font-style:normal;font-variant:normal;font-weight:bold;font-stretch:normal;font-size:22.6667px;font-family:'Screener SC';-inkscape-font-specification:'Screener SC Bold';white-space:pre;shape-inside:url(#rect4);display:inline;opacity:1;fill:#ffffff;fill-opacity:1;stroke:#ffffff;stroke-width:0.113386;stroke-opacity:1"
       inkscape:label="Ticket Heading"
       transform="matrix(0.26458333,0,0,0.26458333,-0.79944834,88.943189)"><tspan
         x="27.826172"
         y="196.69346"
         id="tspan3">MILL.PT/AGENDA</tspan></text><text
       xml:space="preserve"
       id="text2-2-6"
       style="font-style:normal;font-variant:normal;font-weight:normal;font-stretch:normal;font-size:21.3333px;font-family:Abel;-inkscape-font-specification:Abel;white-space:pre;shape-inside:url(#rect3-0-1);display:inline;opacity:1;fill:#ffffff;fill-opacity:1;stroke:#ffffff;stroke-width:0.113386;stroke-opacity:1"
       inkscape:label="Event Time and Price"
       transform="matrix(0.26458333,0,0,0.26458333,-0.77166567,53.368445)"><tspan
         x="27.826172"
         y="195.29353"
         id="tspan4">Wednesday, May 22
</tspan><tspan
         x="27.826172"
         y="221.96016"
         id="tspan5">18h00 - 21h00, €20</tspan></text><text
       xml:space="preserve"
       id="text2-2"
       style="font-style:normal;font-variant:normal;font-weight:normal;font-stretch:normal;font-size:21.3333px;font-family:Abel;-inkscape-font-specification:Abel;white-space:pre;shape-inside:url(#rect3-0);display:inline;opacity:1;fill:#ffffff;fill-opacity:1;stroke:#ffffff;stroke-width:0.113386;stroke-opacity:1"
       inkscape:label="Event Description"
       transform="matrix(0.26458333,0,0,0.26458333,-0.65866671,19.475598)"><tspan
         x="27.826172"
         y="195.29353"
         id="tspan6">How to use these essential free tools
</tspan><tspan
         x="27.826172"
         y="221.96016"
         id="tspan7">to manage projects, share content, and </tspan><tspan
         x="27.826172"
         y="248.62678"
         id="tspan8">collaborate, all while keeping a record of </tspan><tspan
         x="27.826172"
         y="275.29341"
         id="tspan9">versions and changes made along the way.</tspan></text><text
       xml:space="preserve"
       id="text2"
       style="font-style:normal;font-variant:normal;font-weight:normal;font-stretch:normal;font-size:33.3333px;font-family:Abel;-inkscape-font-specification:Abel;white-space:pre;shape-inside:url(#rect3);display:inline;opacity:1;fill:#ffffff;fill-opacity:1;stroke:#ffffff;stroke-width:0.113386;stroke-opacity:1"
       inkscape:label="Event Subtitle"
       transform="matrix(0.26458333,0,0,0.26458333,-1.0259138,-6.0130502)"><tspan
         x="27.826172"
         y="206.01652"
         id="tspan10">Intro to Git and GitHub
</tspan><tspan
         x="27.826172"
         y="247.68315"
         id="tspan11">for Non-Coders</tspan></text><text
       xml:space="preserve"
       transform="matrix(0.29466952,0,0,0.29469344,-6.0697831,-3.0934738)"
       id="text1"
       style="font-style:normal;font-variant:normal;font-weight:normal;font-stretch:normal;font-size:47.886px;font-family:'Screener SC';-inkscape-font-specification:'Screener SC';white-space:pre;shape-inside:url(#rect2);display:inline;opacity:1;fill:#ffffff;fill-opacity:1;stroke:#ffffff;stroke-width:0.101805;stroke-opacity:1"
       inkscape:label="Event Title"><tspan
         x="40.667969"
         y="68.203074"
         id="tspan13"><tspan
           style="font-weight:bold;-inkscape-font-specification:'Screener SC Bold'"
           id="tspan12">HOW TO </tspan></tspan><tspan
         x="40.667969"
         y="128.06057"
         id="tspan15"><tspan
           style="font-weight:bold;-inkscape-font-specification:'Screener SC Bold'"
           id="tspan14">UNDO</tspan></tspan></text></g></svg>
